<svg width="180" height="180" viewBox="0 0 180 180" fill="none" xmlns="http://www.w3.org/2000/svg">
  <!-- Background -->
  <rect width="180" height="180" rx="36" fill="#2563EB"/>
  <!-- Calendar body -->
  <rect x="30" y="50" width="120" height="100" rx="10" fill="white"/>
  <!-- Calendar top bar -->
  <rect x="30" y="50" width="120" height="36" rx="10" fill="#1D4ED8"/>
  <rect x="30" y="72" width="120" height="14" fill="#1D4ED8"/>
  <!-- Rings / hooks -->
  <rect x="60" y="36" width="12" height="28" rx="6" fill="white"/>
  <rect x="108" y="36" width="12" height="28" rx="6" fill="white"/>
  <!-- Grid dots representing days -->
  <rect x="48" y="102" width="14" height="10" rx="3" fill="#BFDBFE"/>
  <rect x="72" y="102" width="14" height="10" rx="3" fill="#BFDBFE"/>
  <rect x="96" y="102" width="14" height="10" rx="3" fill="#2563EB"/>
  <rect x="120" y="102" width="14" height="10" rx="3" fill="#BFDBFE"/>
  <rect x="48" y="120" width="14" height="10" rx="3" fill="#BFDBFE"/>
  <rect x="72" y="120" width="14" height="10" rx="3" fill="#BFDBFE"/>
  <rect x="96" y="120" width="14" height="10" rx="3" fill="#BFDBFE"/>
  <rect x="120" y="120" width="14" height="10" rx="3" fill="#BFDBFE"/>
  <rect x="48" y="138" width="14" height="10" rx="3" fill="#BFDBFE"/>
  <rect x="72" y="138" width="14" height="10" rx="3" fill="#BFDBFE"/>
</svg>
